<?xml version="1.0" encoding="UTF-8" standalone="no"?> <!-- Created with Vectornator for iOS (http://vectornator.io/) --><!DOCTYPE svg PUBLIC "-//W3C//DTD SVG 1.1//EN" "http://www.w3.org/Graphics/SVG/1.1/DTD/svg11.dtd">
<svg height="100%" style="fill-rule:nonzero;clip-rule:evenodd;stroke-linecap:round;stroke-linejoin:round;" xmlns:xlink="http://www.w3.org/1999/xlink" xmlns="http://www.w3.org/2000/svg" xml:space="preserve" width="100%" xmlns:vectornator="http://vectornator.io" version="1.1" viewBox="0 0 821.305 170.002">
<metadata>
<vectornator:setting key="DimensionsVisible" value="1"/>
<vectornator:setting key="PencilOnly" value="0"/>
<vectornator:setting key="SnapToPoints" value="0"/>
<vectornator:setting key="GuidesVisible" value="1"/>
<vectornator:setting key="CMYKEnabledKey" value="0"/>
<vectornator:setting key="RulersVisible" value="1"/>
<vectornator:setting key="SnapToEdges" value="0"/>
<vectornator:setting key="OutlineMode" value="0"/>
<vectornator:setting key="DisplayWhiteBackground" value="0"/>
<vectornator:setting key="doHistoryDisabled" value="0"/>
<vectornator:setting key="SnapToGuides" value="1"/>
<vectornator:setting key="TimeLapseWatermarkDisabled" value="0"/>
<vectornator:setting key="DynamicGuides" value="0"/>
<vectornator:setting key="IsolateActiveLayer" value="0"/>
<vectornator:setting key="SnapToGrid" value="0"/>
<vectornator:setting key="Units" value="Points"/>
</metadata>
<defs/>
<g id="Layer 2" vectornator:layerName="Layer 2">
<g opacity="1">
<path d="M107.118+8.91348L153.733+8.91348L153.733+160.448L123.533+160.448L123.533+57.9548C123.533+55.0072+123.57+50.8752+123.64+45.5643C123.711+40.2532+123.743+36.1581+123.743+33.2789L94.3882+160.448L62.9271+160.448L33.7824+33.2789C33.7824+36.1581+33.8201+40.2532+33.8901+45.5643C33.9602+50.8752+33.9925+55.0072+33.9925+57.9548L33.9925+160.448L3.79736+160.448L3.79736+8.91348L50.9351+8.91348L79.1317+128.067L107.118+8.91348Z" fill-rule="evenodd" fill="#55dbc9" opacity="1"/>
<path d="M213.493+160.448L181.299+160.448L181.299+8.91348L213.493+8.91348L213.493+160.448Z" fill-rule="evenodd" fill="#55dbc9" opacity="1"/>
<path d="M243.166+8.91348L277.153+8.91348L338.917+114.702L338.917+8.91348L369.113+8.91348L369.113+160.448L336.709+160.448L273.366+52.8123L273.366+160.448L243.166+160.448L243.166+8.91348Z" fill-rule="evenodd" fill="#55dbc9" opacity="1"/>
<path d="M512.002+8.91348L512.002+35.7476L465.597+35.7476L465.597+160.448L432.983+160.448L432.983+35.7476L386.368+35.7476L386.368+8.91348L512.002+8.91348Z" fill-rule="evenodd" fill="#55dbc9" opacity="1"/>
<path d="M599.544+137.836C612.376+137.836+622.568+133.209+630.105+123.956C637.647+114.702+641.418+101.543+641.418+84.4783C641.418+67.482+637.647+54.3387+630.105+45.0537C622.568+35.7634+612.376+31.1208+599.544+31.1208C586.706+31.1208+576.465+35.7476+568.821+45.001C561.171+54.2546+557.351+67.4137+557.351+84.4783C557.351+101.543+561.171+114.702+568.821+123.956C576.465+133.209+586.706+137.836+599.544+137.836ZM673.827+84.4783C673.827+111.686+666.005+132.52+650.361+146.984C638.649+158.769+621.707+164.665+599.544+164.665C577.375+164.665+560.438+158.769+548.721+146.984C533.007+132.52+525.152+111.686+525.152+84.4783C525.152+56.7179+533.007+35.8844+548.721+21.9726C560.438+10.1821+577.375+4.28676+599.544+4.28676C621.707+4.28676+638.649+10.1821+650.361+21.9726C666.005+35.8844+673.827+56.7179+673.827+84.4783Z" fill-rule="evenodd" fill="#55dbc9" opacity="1"/>
<path d="M722.016+113.676C722.996+120.597+724.925+125.772+727.802+129.198C733.065+135.436+742.078+138.552+754.845+138.552C762.49+138.552+768.696+137.731+773.469+136.083C782.514+132.935+787.039+127.072+787.039+118.508C787.039+113.502+784.798+109.628+780.305+106.891C775.817+104.217+768.766+101.854+759.16+99.7955L742.745+96.1952C726.611+92.6317+715.459+88.763+709.286+84.5783C698.835+77.5883+693.609+66.6556+693.609+51.7859C693.609+38.2162+698.657+26.9415+708.758+17.9617C718.859+8.98191+733.695+4.49205+753.267+4.49205C769.611+4.49205+783.553+8.72932+795.087+17.1933C806.627+25.6571+812.677+37.9425+813.242+54.0493L782.094+54.0493C781.533+44.9326+777.466+38.453+769.891+34.6159C764.838+32.0788+758.562+30.8102+751.058+30.8102C742.708+30.8102+736.044+32.4578+731.066+35.7476C726.083+39.0373+723.594+43.6272+723.594+49.5225C723.594+54.9388+726.051+58.9813+730.958+61.6552C734.115+63.4343+740.849+65.5293+751.16+67.9241L777.886+74.1984C789.603+76.9408+798.438+80.6043+804.402+85.1995C813.662+92.3264+818.29+102.638+818.29+116.139C818.29+129.988+812.87+141.484+802.037+150.632C791.198+159.78+775.887+164.359+756.106+164.359C735.904+164.359+720.017+159.848+708.44+150.837C696.868+141.826+691.083+129.435+691.083+113.676L722.016+113.676Z" fill-rule="evenodd" fill="#55dbc9" opacity="1"/>
</g>
</g>
</svg>
